<svg xmlns="http://www.w3.org/2000/svg" width="60" height="60" version="1.2" viewBox="0 0 256 256" baseProfile="tiny"><path fill="#D1232A" d="M122.92 16.88S96.5-10.08 77.52 7.94c-10.9 10.34-28.65 11.16-41.64 5.4 0 0-1.95 15.82 41.3 12.1 0 0-26.7 5.67-37.2 15.63-19.32 18.35-4.96 19.1-24.87 38 0 0 10.45 4.47 25.98-10.27 0 0 5.93 1.6-14.38 15.03-25.7 16.96-17.02 50.87.02 71.93 0 0-10.1-26.53 8.45-37.69 0 0 8.36 33.44-12.44 49.1 0 0 8.47-.6 13.18-6.7 0 0-5.77 6.5 2.38 13.22 0 0-8.9 11.98-3.3 20 5.63 8 13.32 17.78 9 27.38 0 0 5.63-3.38 5.63-14.23 0 0-.93 28.3 27.37 28.3 0 0-21.55-9.08-12.92-24.2 0 0-.1 13.78 9 15.47 9.08 1.7 30.35 5 20.42 18.86 0 0 9.37 0 9.37-14.4 0 0 1.3 7.1 9.65 9.15 8.34 2.05 11.06 8.54 5.34 13.97 0 0 12.18-6.58 12.18-13.17 0-6.58 7.87-8 7.87-8s-3.75 5.55 3.83 9.56c0 0-2.56-6.7 6.86-10.15 7.22-2.63 9.56 1.75 15.93-1.63 9.14-4.85 2.4-16.65 2.4-16.65s10.8 11.77 5.9 26.1c0 0 26.1-2.17 12.3-45.37 0 0 20.8-1.38 20.8 29.9 0 0 14.36-20.94.28-48.8-15.8-31.26.4-17.12.4-17.12s6.9 14.4 15.17 14.4c0 0-11.9-16.23-5.95-29.36 5.95-13.12 3.84-30.26-5.77-35 0 0 23.82 9.12 15.76 28.8 0 0 34.97-55.42-25.73-76.94 0 0 21.9-3.64 32.65 9.85 0 0-6-32.03-29.58-35-17.3-2.2-21.32-6.03-21.32-6.03s10.95-14.03 29.77 0c0 0-24.85-43.1-88.68-12.52z"></path><path d="M154.4 94.24c-3-3.74-6.7-8-10.27-11.56-3.58-3.58-10.98-1.72-10.98-1.72s-7.17 1.3-7.17-5.6c0-6.9 5.74-11.18 8.48-13.6 2.74-2.4 7.3-3.93 8.15-12.4 0-.02-.93 2.7-3.07 4.3 0 0-.9 2-.9-.33 0-2.17-.9-6.78-12.94-7.42 2.77.23 7.03.98 10.4 3.35 0 0-4.63-.65-8.15 4.75-3.34 5.12-3.7 10.4 2.38 8.16 0 0-7.54 8.35-7.54-1.78 0 10.13-7.54 1.78-7.54 1.78 6.08 2.23 5.7-3.04 2.37-8.16-3.52-5.4-8.16-4.75-8.16-4.75 3.38-2.37 7.65-3.12 10.43-3.34-12.04.65-12.94 5.26-12.94 7.42 0 2.33-.9.34-.9.34-2.15-1.6-3.08-4.3-3.08-4.3.86 8.47 5.4 10 8.14 12.4 2.74 2.4 8.5 6.7 8.5 13.6 0 6.9-7.18 5.6-7.18 5.6s-7.4-1.86-10.98 1.72c-3.58 3.57-7.28 7.82-10.27 11.56-3 3.73-4.07 3.57-7.06-1.87 0 0 2.6 25.15 5.2 36.6 7.23 31.54 9.62 54.97 33.45 54.97 27.3 0 24.73-16.94 33.43-54.96 2.63-11.46 5.22-36.6 5.22-36.6-3 5.43-4.06 5.6-7.05 1.86zM129.05 44.1s5.87 3.72 6.72.63c.84-3.08-.4-4.07-.4-4.07s2.7.44 4 2.07c1.28 1.63 3.52 2.34 4.33 3.16.82.8 4.14 4.87 5.06 4.36.9-.5-.75-3.32-1.87-3.87-1.13-.55-4.78-1.58-6.96-3.77l-1.14-1.14s2.77-.4 5.3 2.9c0 0-1.08-2.9-5.55-3.6-4.48-.7-4.65-1.43-4.65-1.43s.98 1.53.98 2.17c0 .65-.74 3.63-2.67 3.33-1.93-.3-3.15-.78-3.15-.78z"></path><path fill="#D1232A" d="M113.63 42.8"></path><path d="M153.58 51.28s3.13-1.62 8.24 0c5.1 1.62 6.74 3.2 9.2 3.2 0 0-3.73 2.2-10.22 0-6.5-2.24-7.22-3.2-7.22-3.2zM92 51.28s-3.12-1.62-8.23 0c-5.12 1.62-6.74 3.2-9.2 3.2 0 0 3.72 2.2 10.22 0s7.2-3.2 7.2-3.2zM111.48 39.58c-.38.27-1.44.74-4.44 1.22-4.48.7-5.56 3.6-5.56 3.6 2.54-3.3 5.3-2.9 5.3-2.9l-1.13 1.13c-2.18 2.2-5.83 3.22-6.95 3.76-1.12.54-2.78 3.35-1.86 3.86.9.5 4.23-3.56 5.05-4.37.8-.83 3.04-1.54 4.33-3.17s4-2.07 4-2.07-1.25 1-.4 4.07c.84 3.1 6.7-.64 6.7-.64s-1.2.46-3.14.77c-1.95.3-2.7-2.68-2.7-3.33 0-.28.2-.73.4-1.15-.3.04-.53.1-.53.1l.9-.92z"></path><path fill="#11100C" d="M124.18 37.82s-2.64-2.74-5.98-.77c0 0 4.67-1.1 4.44 1.98 0 0-2.2 1.37-3.54 1.37s-3.08-1.2-4.7-.74c0 0-.93-2.07-2.7-.3l-.22.22-.9.9s.2-.04.53-.1c1.1-.16 3.4-.4 2.9.88-.54 1.3-.3 1.35.02 1.2 0 0 2.64-1.23 3.9-1.23 1.28 0 3.72-.9 5.46-2.2 1.73-1.3 4.58-3.45 8.12-2.48 0 0-3.66-1.5-7.32 1.27zM127.87 32.95c-.8.3-1.68.5-2.46.63 0 0 .07-.7-.2-.97 0 0 1.02-.17 1.88-1.03.86-.86 1.43-2.54 3.78-2.54 0 0-2.47-.3-3.4.63-.9.9-.73 1.93-1.86 1.57-1.14-.37-.54-1.45-.2-2.18.32-.72 0-3.1-2.9-4.17 0 0 2.3 2.8.85 3.22-1.45.4-1.07-2.76-3.2-2.63-2.1.13-1.93 1.9-2.56.57-.63-1.3.46-2.9-.92-3.15-1.37-.27-1.73.47-1.27.93.47.46 2.1 2.46 1.82 2.74s.68 1.64 1.92.4c1.24-1.23 1.45-.43 1.9.03.47.46 1.4 1.3 1.03 2.2-.35.9-.35 1.35.46 1.5.82.16 1.2.62.72 1.1-.5.5-.64 2.04-2.75 1.83-.87-.12-1.87-.33-2.78-.7-3.87-1.5-6.5-1.2-6.5-1.2 3.54.5 5.13 1.24 6.12 1.66.98.4 3.65.9 5.45.9 1.8 0 4.47-.5 5.45-.9s2.57-1.16 6.13-1.66c0 0-2.65-.3-6.5 1.2zM115.9 25.6c-.26-.25-1.26 1.58-.36 1.83.9.26.84-1.34.35-1.84z"></path><path fill="#111414" d="M151.85 45.73c.38-.38 3.75-3.2 3.2-5.45-.52-2.25.87-3.85-5.12-6.85 0 0 3.1 1.82 3.63 3.53.54 1.7 1.18 2.14.54 4.28-.64 2.14-2.25 3-2.25 3s1.5-6.96-7.6-12.73c0 0 6.86 5.57 6.86 11.24s-.37 4.1.75 3zM97.63 35.14s-.16 3.48-3 6.3c0 0-5.88-6.2 3.85-7.8 0 0-12.44.14-3.3 10.6 0 0-.33-1.18 1.27-2.8 1.6-1.6 1.18-6.3 1.18-6.3zM190.4 69.4s4.7 7.48 11.27 7.58c0 0-2.88 1.64-4.35.94 0 0 3.18 2.64 3.86 4.53.68 1.9 5 5.3 7.6 5.85 0 0-7.57 1.38-14.35-3.64 0 0 2.22-.9 3.45-.3 0 0-2.18-2.4-3.44-1.94 0 0 .77-2.27 3.16-1.13 0 0-4.9-2.16-5.54-3.9-.62-1.76 0 0 0 0s.3-1.37 2.02-.56c0 0-2.54-2.25-3-3.52 0 0 .45-.68 1.97.6 0 0-1.55-1.43-2.66-4.53z"></path><g fill="#fff"><path d="M101.8 86.96c-1.08 1.1-1.02 7.64.38 15.36s3.02 9.94 4.1 9.7c1.06-.25 1.35-8.63 1.35-11.73 0-3.1 2.64-10.2 1.86-11.48-.8-1.28-1.83-.17-3.93-.9-2.1-.75-2.93-1.78-3.76-.96zM110.98 87.95c-.54.54.12 2.6.12 3.43 0 .83-1.1 4.95.4 5.12 1.54.16 3.48-2.6 3.48-4s-.66-3.6-1.77-4.34c-1.1-.74-1.83-.6-2.22-.2zM116.92 91.05c-.96-.23-1.73 2.02-1.73 2.8 0 .8.48 1.53 1.47 1.78 1 .25 1.82-.4 2.03-1.6.2-1.2-.75-2.73-1.78-2.98zM121.75 91.96c-.9 0-1.86.78-2.06 1.7-.22.9.3 2.06 1.14 2.26.87.2 1.45-.57 1.7-1.78.32-1.6-.8-2.18-.8-2.18zM144.58 86.96c1.1 1.1 1.03 7.64-.37 15.36s-3 9.94-4.08 9.7c-1.07-.25-1.36-8.63-1.36-11.73 0-3.1-2.64-10.2-1.85-11.48.8-1.28 1.82-.17 3.93-.9 2.1-.75 2.93-1.78 3.75-.96zM135.42 87.95c.54.54-.12 2.6-.12 3.43 0 .83 1.1 4.95-.42 5.12-1.52.16-3.46-2.6-3.46-4s.66-3.6 1.77-4.34c1.1-.74 1.83-.6 2.22-.2zM129.48 91.05c.96-.23 1.73 2.02 1.73 2.8 0 .8-.48 1.53-1.48 1.78s-1.8-.4-2.02-1.6c-.2-1.2.74-2.73 1.78-2.98zM124.65 91.96c.9 0 1.85.78 2.06 1.7.22.9-.3 2.06-1.14 2.26-.87.2-1.45-.57-1.7-1.78-.33-1.6.8-2.18.8-2.18zM108.61 156.56c-1.38 1.4-.87 7.55.4 11.5s2.1 4.32 3.67 3.8c1.55-.53 3.68-6.3 2.67-7.3-1.02-1.02-2.06.44-2.06.44s-3.3-9.8-4.67-8.44zM117.33 168.66c-.53-.54-2.5.95-2.5 1.54s-.16 2.3 1.26 2.3c1.4 0 1.85-.87 1.96-1.5.1-.64-.36-1.98-.73-2.34zM120.1 168.97c-.5-.05-1.5 1-1.5 1.42 0 .4.43 1.57.96 1.57.52 0 1.22-.34 1.36-.84.14-.5-.02-2.1-.8-2.16zM122.25 169.22c-.56 0-1 .58-1 1.25s.25 1.05.94 1.05c.7 0 .8-.7.8-1.05 0-.37-.1-1.25-.75-1.25zM137.78 156.56c1.4 1.4.9 7.55-.4 11.5-1.27 3.94-2.1 4.32-3.66 3.8-1.55-.53-3.67-6.3-2.66-7.3 1-1.02 2.05.44 2.05.44s3.32-9.8 4.68-8.44zM129.06 168.66c.54-.54 2.52.95 2.52 1.54s.15 2.3-1.27 2.3-1.85-.87-1.96-1.5c-.1-.64.36-1.98.72-2.34zM126.28 168.97c.5-.05 1.5 1 1.5 1.42 0 .4-.4 1.57-.94 1.57-.53 0-1.22-.34-1.36-.84-.14-.5 0-2.1.8-2.16zM124.15 169.22c.55 0 1 .58 1 1.25s-.25 1.05-.95 1.05-.8-.7-.8-1.05c0-.37.1-1.25.75-1.25z"></path></g><path fill="#fff" d="M95.67 153.63s-5.9 11.9 2.62 24.3c4.48 6.5 13.12 17.87 5.24 25.76 0 0 9.05-2.5 11.66-13.32 0 0 3.56 3.18 1.65 9.86-2.5 8.75 2.73 14 6.7 16.6 0 0-4.35-11.56 4.8-18.23 6.87-4.98 7.14-10.27 7.14-10.27s-.2 6.72 8.43 8.43c0 0-4.67-8.3 1.3-12.55 9.05-6.43 4.1-26.82 4.1-26.82s-5.4 7.04-6.13 13.85c-.74 6.8-4.92 12.72-20.23 12.72-15.32 0-19.15-9.43-19.15-11.92 0-2.5-2.76-21.05-8.15-18.4zM168.15 70.47c1.1-6.2-4.83-9.85-4.83-9.85 0-3.35-6.32-7.56-6.32-7.56l-3.42-1.78c-2.16 0-4.7-2.3-4.7-2.3l-3.46-1.2c-1.58-1.6-2.8 1.57-2.8 1.57-.87 8.48-5.42 10.02-8.16 12.42-2.74 2.4-8.48 6.7-8.48 13.6 0 6.9 7.17 5.6 7.17 5.6s7.4-1.87 10.98 1.7c3.57 3.58 7.28 7.83 10.27 11.57 3 3.73 4.06 3.57 7.05-1.87 1.68-2.75 2.76-11.45 2.76-11.45 7.1-3.64 3.95-10.45 3.95-10.45zM162.3 63.67s23.75-14.7 50.72-17.12c0 0-23.75 2.33-49.92 17.66l-.8-.53zM164.54 64.83s17.83-2.06 29.4-28.23c0 0-6.37 22.32-29.45 29.44l.04-1.2zM164.54 67.7s26.9-10.22 31.64-11.38c0 0-25.82 8.24-32.1 10.93l.46.45zM165 69.3s16.66-4.3 33.42 20.72c0 0-17.03-23.84-33.8-19.9l.37-.8zM166.7 70.93s14.6 2.77 21.6 3.94c0 0-17.4-2.42-21.34-2.96l-.27-.97zM167.63 72s7.93 1.26 27.74 15.5c0 0-21.7-16.57-28.68-16.57l.93 1.07zM168.34 76.7s9.46-.22 12.06-.67c2.6-.44 12.9.27 18.82 1.7 0 0-10.4-3.12-20.52-2.4-10.13.7-8.34.62-10.85.26l.5 1.1zM162.66 80.92s15.5 7.04 33.7.85c0 0-16.68 5.56-33-1.6l-.7.75zM162.1 80.36s7.28-1.55 38.83 16.74c0 0-22.95-16.3-38.63-17.66l-.2.92zM162.4 83.2s3.03 2.25 5.45 6.82c0 0-1.97-5.3-5.2-7.8l-.26 1zM161.76 88.4s11.65 9.24 11.65 23.75c0 0 2.25-11.65-11.1-25l-.54 1.25zM162.48 86.72s3.22 1.97 4.2 3.86c1 1.88 6.5 11.77 11.66 18.53 0 0-7.93-12.53-10.52-18-1.36-2.9-5.34-5.54-5.34-5.54v1.16zM161.1 90.95s10.56 12.72 11.4 18.45c0 0 .57-5.3-11.12-18.7l-.27.25zM159.52 91.98s1 4.25 3.04 9.14c2.3 5.52 2.6 7.67 2.42 10.74 0 0 1.4-4.06-2-11.15-2.33-4.83-3-9.18-3-9.18l-.46.46zM77.44 70.47c-1.1-6.2 4.83-9.85 4.83-9.85 0-3.35 6.32-7.56 6.32-7.56l3.4-1.78c2.17 0 4.72-2.3 4.72-2.3l3.45-1.2c1.58-1.6 2.8 1.57 2.8 1.57.87 8.48 5.4 10.02 8.16 12.42 2.74 2.4 8.48 6.7 8.48 13.6 0 6.9-7.16 5.6-7.16 5.6s-7.4-1.87-10.98 1.7c-3.57 3.58-7.28 7.83-10.27 11.57-3 3.73-4.07 3.57-7.06-1.87-1.68-2.75-2.76-11.45-2.76-11.45-7.1-3.64-3.94-10.45-3.94-10.45zM83.3 63.67s-23.76-14.7-50.74-17.12c0 0 23.75 2.33 49.92 17.66l.8-.53zM81.05 64.83s-17.83-2.06-29.4-28.23c0 0 6.37 22.32 29.45 29.44l-.05-1.2zM81.05 67.7S54.15 57.48 49.4 56.32c0 0 25.83 8.24 32.1 10.93l-.45.45zM80.6 69.3S63.93 65 47.17 90.03c0 0 17.03-23.84 33.8-19.9l-.37-.8zM78.9 70.93s-14.6 2.77-21.6 3.94c0 0 17.4-2.42 21.33-2.96l.27-.97zM77.95 72s-7.92 1.26-27.73 15.5c0 0 21.7-16.57 28.68-16.57L77.95 72zM77.24 76.7s-9.45-.22-12.05-.67c-2.6-.44-12.92.27-18.83 1.7 0 0 10.4-3.12 20.52-2.4 10.1.7 8.32.62 10.83.26l-.5 1.1zM82.93 80.92s-15.5 7.04-33.7.85c0 0 16.67 5.56 33-1.6l.7.75zM83.5 80.36S76.2 78.8 44.65 97.1c0 0 22.95-16.3 38.63-17.66l.2.92zM83.2 83.2s-3.05 2.25-5.47 6.82c0 0 1.98-5.3 5.2-7.8l.27 1zM83.83 88.4s-11.65 9.24-11.65 23.75c0 0-2.24-11.65 11.1-25l.55 1.25zM83.1 86.72s-3.2 1.97-4.2 3.86c-.98 1.88-6.5 11.77-11.65 18.53 0 0 7.92-12.53 10.52-18 1.36-2.9 5.34-5.54 5.34-5.54v1.16zM84.47 90.95S73.92 103.67 73.1 109.4c0 0-.58-5.3 11.1-18.7l.27.25zM86.07 91.98s-1 4.25-3.04 9.14c-2.3 5.52-2.62 7.67-2.43 10.74 0 0-1.4-4.06 2.02-11.15 2.32-4.83 3-9.18 3-9.18l.45.46z"></path><path fill="#111414" d="M54.63 64.23c1.74-1-.26-1.7-.26-1.7.67-.67 1.34-.3 1.34-.3.3-.9-.4-1.8-.4-1.8.8-.3 2.08.32 2.08.32 0-.5-.76-1.52-.76-1.52.7.7 1.98.2 1.98.2 0-1.47-2.05-2.05-2.05-2.05 1.63-.32 3.2.98 3.2.98.24-1.23-1.17-1.74-1.17-1.74 1.1-.3 2.28 0 2.28 0-.83-.83-.65-1.48-.65-1.48.7.68 2.33-.22 2.33-.22-.33-1.02-3.15-.58-3.15-.58 2.6-1.67 4.85-.73 4.85-.73-1.4-.75-.94-2.24-.94-2.24 1.9.8 2.67.33 2.67.33-.25-.6.26-1.2.26-1.2.9.32 1.45-.33 1.45-.33-.83 0-1.42-.44-1.42-.44 1.57 0 2.87-1.12 2.87-1.12-.6 0-.95.34-.95.34.58-1.24 2.4-2.03 2.4-2.03-1.34.73-1.78-.4-1.78-.4 1.56.4 1.67-1.04 1.67-1.04-1.46 0-1.27-.73-1.27-.73 2.03 0 2.32-1.45 2.32-1.45-.87-.18-1.05-1-1.05-1 .98.38 2.34-.7 2.34-.7-1.28 0-2.04-2.03-2.04-2.03 2.46.94 3.33-.66 3.33-.66 0-1.06-1.78-.84-1.78-.84 1.45-.76 2.35.04 2.35.04-.87-1.27 0-2.4 0-2.4 1.1-.26 2.3 0 2.3 0-.48-.94 0-2.06 0-2.06C79.8 34.7 82 31.8 82 31.8c-1.04.2-2.4-.23-2.4-.23 2.18 0 3.94-1.92 3.94-1.92-.56-.56-2.6-.75-2.6-.75 1.25-.36 3.18-.42 4.2-.43-.68-.3-2.72-1.15-4.75-.8-2.5.42-2.7 1.35-5.7 1.35 0 0 1.36 1 3.85 1 0 0-4.33 1.9-8.02.5 0 0 1.98 1.7 5.67 1.7 0 0-3.33 4.46-8.73 3.75 0 0 3.4 1.28 6.1 0 0 0-5.8 5.26-11.14 2.63 0 0 2.17 1.67 5.36 1.9-1.26 0-3.98.17-6.15 1.65 0 0 6-1.1 7.46.35 0 0-1 4.4-5.32 4.4 0 0 .78 1.7 4.33.86 0 0-4.96 4.9-13.62 1.56 0 0 1.85 2.27 6.32 2.7 0 0-2.34 2.13-7.74 1.27-5.4-.86-6.46 1.2-6.46 1.2s4.05-1.7 9.45 1.35c0 0-1.42 3.76-9.6 4.26 0 0 1.57 2.07 7.4 1.7 0 0-.22 3.42-3.7 4.55 0 0 2.17.9 6.5-1.08-.43-1.46-2.02-1.03-2.02-1.03zM58.35 121.28c-.06.07-.1.14-.17.2 0 0 .06-.1.17-.2 1.3-1.72-.17-5.67-.17-5.67-.83 1.6-2.76 1.2-2.76 1.2 2.63-2.65 1-6.46 1-6.46 0 1.17-1.76 2.68-1.76 2.68 1-1.76 0-4.86 0-4.86-.6 2.82-3 3-3 3 1.08-1.9.87-7.24.87-7.24s-.88.88-2.3 4.07c-1.43 3.17-4.53 4.5-4.53 4.5 2.3-2.3 2.18-6.94 2.18-6.94-1.5 0-4.28 2.5-4.28 2.5.42-2.25 4.1-5.1 4.1-5.1-1.17 1.17-5.86.5-5.86.5 3.44-.67 6.37-2.26 6.37-5.95 0-1.13.2-2.32.45-3.42-1.17 1.52-2.75 3.23-4.34 3.85-3.1 1.2-5.9 2.87-6.86 4.16-.97 1.27-3.8 3.16-6.66 3.14 0 0 7.1 3.05 11.7.6 0 0-2.86 5.4-11 4.94 0 0 3.8 1.35 6.75.94 2.93-.4 3.2-1.42 5.4-.75 0 0-2.58 4.04-5.76 5.18 0 0 5.7-.27 6.97-1.94 0 0-1.45 5.08-4.66 5.53 0 0 3.73.8 6.5-2.85 0 0-2.18 2.6-.72 5.8 0 0 .2-3.08 3.08-4.06s4.45-2.3 4.36-2.93c0 0 .9 4.67-4.12 6.8 0 0 4.22.5 6.6-3.5 0 0 .48 3.95-3.8 5.02 0 0 5.52 2.2 8.82-2.18-1.4-1.4-2.23-.9-2.55-.56z"></path></svg>
