<?xml version="1.0" standalone="no"?>
<!DOCTYPE svg PUBLIC "-//W3C//DTD SVG 20010904//EN"
 "http://www.w3.org/TR/2001/REC-SVG-20010904/DTD/svg10.dtd">
<svg version="1.0" xmlns="http://www.w3.org/2000/svg"
 width="700.000000pt" height="700.000000pt" viewBox="0 0 700.000000 700.000000"
 preserveAspectRatio="xMidYMid meet">
<metadata>
Created by potrace 1.11, written by Peter Selinger 2001-2013
</metadata>
<g transform="translate(0.000000,700.000000) scale(0.100000,-0.100000)"
fill="#000000" stroke="none">
<path d="M2438 6940 c-119 -21 -215 -70 -322 -165 -131 -115 -306 -196 -483
-226 -97 -16 -283 -13 -387 6 -75 13 -175 41 -248 70 -14 6 -15 2 -9 -27 34
-148 203 -246 501 -289 94 -14 512 -17 575 -5 79 15 23 -7 -87 -36 -154 -39
-411 -127 -538 -183 -175 -78 -254 -130 -378 -249 l-113 -110 134 -22 c74 -13
164 -30 198 -39 121 -30 339 -99 339 -107 0 -14 -30 -9 -137 27 -135 45 -401
112 -480 120 l-60 7 -29 -36 c-58 -72 -102 -158 -133 -258 -75 -243 -124 -330
-272 -483 -103 -107 -103 -109 27 -107 164 2 365 94 527 242 60 55 73 60 82
30 19 -60 -87 -165 -366 -362 -222 -157 -307 -249 -389 -419 -188 -393 -96
-940 242 -1437 72 -105 95 -131 79 -90 -30 78 -54 250 -54 378 0 215 48 357
162 481 57 63 137 127 146 117 11 -11 36 -216 41 -343 17 -381 -77 -685 -279
-901 -43 -46 -72 -84 -65 -84 26 0 122 32 172 57 27 14 71 46 99 71 l50 47
-24 -45 c-47 -92 -26 -200 56 -281 l36 -37 -30 -47 c-47 -74 -90 -186 -103
-269 -18 -118 -4 -161 106 -324 51 -76 107 -163 125 -194 77 -136 109 -302 77
-402 l-15 -49 30 29 c53 51 108 193 110 289 1 26 8 2 20 -70 11 -60 26 -132
35 -160 89 -275 311 -451 594 -472 l75 -5 -79 48 c-113 68 -228 183 -264 265
-16 35 -32 81 -35 102 -8 52 10 151 36 201 l21 41 7 -69 c10 -91 44 -197 80
-246 53 -73 93 -93 240 -124 263 -54 393 -102 473 -176 81 -75 95 -157 42
-263 -14 -28 -23 -53 -21 -55 11 -11 85 27 126 65 58 54 87 119 101 229 l12
85 23 -50 c44 -92 125 -155 253 -196 83 -27 123 -50 163 -94 65 -72 69 -172 8
-244 l-26 -31 33 20 c73 42 197 152 235 206 28 42 41 73 47 116 15 112 65 173
171 213 48 19 51 19 44 2 -12 -30 -18 -90 -11 -117 7 -29 47 -78 85 -105 l27
-20 1 50 c1 96 82 183 209 225 45 14 79 18 144 15 169 -8 203 -5 256 18 137
60 180 194 120 373 -13 40 -23 74 -21 76 7 7 89 -123 117 -186 65 -143 87
-326 54 -452 -8 -30 -13 -57 -11 -59 8 -7 135 41 177 68 176 112 270 341 254
619 -8 138 -37 302 -77 438 -16 56 -29 105 -29 108 0 11 52 6 119 -10 184 -45
326 -188 395 -395 31 -91 56 -239 57 -334 l1 -70 50 105 c29 59 64 154 81 220
29 109 30 126 31 315 1 294 -25 397 -190 753 -108 231 -154 359 -154 425 0 79
47 87 144 22 42 -28 63 -53 107 -127 93 -157 227 -282 327 -303 l33 -7 -37 58
c-77 121 -147 307 -165 440 -14 110 -1 192 57 352 111 306 93 602 -48 798 -18
25 -50 59 -72 75 -47 34 -41 37 17 8 129 -66 261 -177 324 -273 59 -89 77
-150 78 -261 0 -55 -3 -116 -7 -135 -11 -51 71 112 116 233 80 213 118 413
117 617 -1 319 -109 571 -337 790 -144 137 -323 248 -544 337 l-95 38 50 7
c135 18 336 2 473 -38 117 -34 228 -94 306 -165 l64 -59 -9 37 c-114 435 -351
755 -639 862 -31 12 -121 32 -200 45 -266 46 -380 76 -483 127 -67 34 -66 38
8 97 166 131 366 146 583 42 45 -21 99 -52 119 -67 l37 -28 -20 35 c-10 18
-71 86 -134 150 -208 209 -443 339 -735 406 -100 23 -151 28 -306 32 -204 5
-321 -5 -500 -43 -195 -40 -437 -121 -646 -216 l-72 -32 -64 56 c-167 147
-383 273 -549 321 -97 28 -236 40 -310 26z m-855 -1239 c36 -52 51 -81 41 -81
-18 0 -113 145 -158 242 -56 119 -51 131 7 22 30 -56 79 -138 110 -183z m3697
229 c-41 -105 -126 -250 -197 -337 -19 -24 -33 -43 -31 -43 2 0 51 16 109 35
136 47 306 91 443 115 163 30 181 23 26 -9 -155 -32 -346 -86 -505 -143 -93
-33 -119 -47 -175 -97 -88 -79 -189 -146 -287 -194 -46 -21 -81 -43 -78 -47 3
-5 38 4 78 19 105 41 448 154 452 150 2 -2 -113 -47 -256 -99 l-260 -95 3 -35
3 -35 68 -7 c80 -9 189 -46 266 -90 31 -17 81 -37 111 -44 42 -10 47 -13 18
-11 -29 2 -35 0 -26 -10 7 -9 7 -13 -1 -13 -7 0 -10 -4 -6 -10 3 -5 -22 -10
-62 -12 l-68 -3 137 -92 c128 -86 178 -108 192 -84 6 9 -92 106 -154 153 -27
21 -32 30 -23 39 10 10 34 10 111 0 137 -16 182 -32 72 -25 -47 3 -100 8 -119
11 l-34 6 43 -39 c24 -21 65 -62 92 -90 36 -39 55 -51 71 -48 18 4 19 3 4 -4
-16 -7 -15 -11 15 -47 40 -48 82 -105 92 -125 4 -8 -7 3 -26 25 -18 22 -53 61
-78 88 -41 42 -48 46 -74 39 l-30 -8 36 -22 c20 -12 42 -30 49 -39 8 -10 -10
0 -40 21 l-54 38 -93 -11 c-51 -6 -114 -11 -141 -11 l-48 0 150 -78 c83 -43
161 -85 175 -94 105 -65 250 -161 250 -165 0 -2 -3 -2 -7 0 -165 97 -473 256
-608 315 -38 17 -111 37 -160 46 -50 8 -119 24 -152 34 l-62 20 -3 -22 c-2
-12 11 -41 28 -66 36 -52 67 -110 62 -116 -3 -2 -23 23 -47 56 -23 33 -46 58
-52 55 -17 -11 -9 -26 39 -73 31 -30 72 -92 117 -172 37 -69 104 -183 147
-254 43 -71 77 -130 75 -132 -2 -2 -46 61 -98 140 -52 79 -99 152 -106 163 -7
10 3 -16 22 -57 43 -94 64 -174 70 -270 6 -92 1 -82 -18 31 -26 154 -109 322
-223 448 -47 52 -58 56 -67 22 -3 -12 14 -41 50 -87 82 -103 151 -207 188
-287 58 -122 50 -138 -9 -22 -31 61 -92 160 -137 220 -107 147 -103 143 -124
111 -17 -26 -17 -29 45 -184 56 -142 63 -165 66 -242 l3 -85 -10 65 c-5 36
-24 103 -41 150 -30 86 -76 215 -83 237 -3 8 -15 1 -34 -17 -16 -17 -36 -30
-43 -30 -15 0 -94 80 -183 185 -103 122 -199 216 -240 238 -42 21 -91 24 -256
16 -78 -4 -88 -2 -122 21 -56 38 -73 101 -54 196 23 110 95 204 244 320 132
104 172 161 193 276 11 60 27 95 46 102 19 7 72 -16 308 -131 95 -46 187 -129
214 -193 35 -83 32 -83 220 8 92 44 199 93 237 107 54 21 81 39 118 78 64 68
158 209 213 319 24 48 46 88 49 88 3 0 -4 -23 -15 -50z m-2481 -246 c12 -15
21 -37 21 -49 0 -40 37 -145 66 -187 16 -22 62 -66 104 -98 117 -90 206 -184
243 -259 28 -57 32 -76 32 -143 0 -62 -4 -82 -21 -105 -42 -57 -61 -60 -274
-52 -83 4 -101 1 -141 -18 -44 -22 -153 -136 -319 -331 -34 -40 -73 -78 -87
-85 -21 -9 -28 -7 -56 21 l-31 32 -39 -108 c-71 -195 -87 -252 -88 -305 -1
-47 -2 -49 -11 -24 -16 44 7 145 68 298 58 146 61 163 39 193 -14 19 -15 18
-37 -9 -107 -135 -204 -287 -245 -382 -20 -48 -23 -52 -19 -23 10 60 92 210
179 324 45 59 86 114 91 121 6 8 6 22 0 36 -10 21 -11 21 -55 -25 -130 -139
-212 -310 -239 -501 -8 -55 -9 -52 -5 30 4 95 29 184 79 283 14 28 24 52 21
52 -2 0 -12 -15 -21 -32 -23 -45 -183 -286 -195 -293 -5 -4 29 56 75 132 117
192 208 362 201 373 -7 12 17 60 61 123 19 26 34 58 34 71 l0 24 -60 -18 c-33
-10 -104 -26 -157 -36 -128 -23 -298 -97 -571 -250 -62 -35 -112 -58 -110 -51
6 17 189 128 343 207 l130 68 -105 6 c-58 4 -136 13 -175 21 l-69 15 -46 -53
c-26 -28 -59 -65 -75 -82 l-27 -30 27 40 c16 22 43 59 62 82 38 48 39 50 16
57 -13 3 -13 4 3 3 14 -1 51 27 113 85 l92 87 -58 -6 c-32 -2 -103 -11 -157
-19 -121 -17 -139 -17 -66 1 91 23 272 47 310 42 19 -3 29 -3 22 0 -6 2 -10 9
-6 14 3 5 -10 9 -28 10 -25 1 -19 4 27 14 33 7 94 31 135 53 84 45 203 82 266
82 39 0 42 2 48 32 3 17 3 35 -1 39 -7 6 -436 167 -491 184 -13 4 -22 9 -19
11 2 2 122 -36 265 -84 144 -49 262 -85 262 -80 0 4 -37 26 -81 48 -108 53
-200 115 -281 189 -36 34 -77 65 -89 70 -21 8 -22 10 -6 16 20 9 155 -46 375
-152 150 -72 153 -73 177 -56 13 10 26 31 29 46 10 47 118 151 206 196 43 23
84 41 91 41 7 0 33 13 58 29 25 16 64 34 86 41 22 7 44 16 50 21 16 15 33 10
54 -17z m2564 -791 c-7 -2 -19 -2 -25 0 -7 3 -2 5 12 5 14 0 19 -2 13 -5z
m-3843 -187 c0 -2 -26 -20 -57 -41 -63 -41 -62 -34 2 14 36 28 55 37 55 27z
m1328 -92 c20 -9 59 -19 86 -22 28 -4 53 -14 59 -23 7 -12 2 -51 -17 -140 -19
-83 -31 -174 -37 -280 -5 -86 -13 -168 -19 -183 -48 -127 -151 221 -154 520 0
80 3 116 13 128 17 20 22 20 69 0z m1112 -3 c5 -11 10 -70 10 -130 0 -231 -74
-541 -130 -541 -24 0 -29 21 -41 205 -6 97 -20 203 -34 269 -36 159 -33 176
35 176 19 0 53 9 75 19 52 25 72 25 85 2z m-843 -50 c41 -61 22 -160 -37 -191
-43 -23 -50 -9 -49 107 1 59 3 112 6 116 12 19 58 1 80 -32z m590 -79 c2 -126
-6 -142 -55 -105 -44 33 -64 83 -53 133 12 54 47 92 81 88 25 -3 25 -3 27
-116z m-485 11 c51 -58 11 -137 -50 -97 -20 13 -23 21 -19 51 10 60 39 79 69
46z m354 -20 c18 -43 8 -77 -27 -88 -17 -6 -27 -2 -41 15 -23 29 -23 51 3 84
28 36 47 33 65 -11z m-226 -32 c0 -62 -55 -82 -75 -27 -8 25 -6 31 19 52 33
29 56 19 56 -25z m111 8 c23 -44 -25 -91 -59 -57 -15 15 -16 70 0 86 14 14 43
0 59 -29z m-2166 -59 c-3 -5 -16 -15 -28 -21 -19 -9 -19 -8 3 10 28 23 34 26
25 11z m1401 -1612 c50 -45 113 -241 135 -415 15 -123 45 -188 116 -253 107
-98 226 -135 428 -133 164 1 263 19 353 65 110 55 158 126 186 274 8 44 27
112 41 150 25 67 113 224 125 224 27 0 50 -353 31 -465 -21 -121 -47 -172
-127 -252 -60 -61 -74 -81 -84 -123 -14 -59 -7 -126 21 -188 l19 -43 -33 6
c-88 19 -180 99 -194 169 -6 27 -7 26 -34 -32 -27 -60 -70 -108 -202 -229 -67
-60 -104 -132 -117 -225 -9 -59 0 -181 16 -222 23 -59 -118 77 -161 156 -37
67 -44 164 -22 298 17 102 13 150 -17 208 -17 32 -36 35 -36 5 0 -29 -71 -151
-115 -196 -46 -49 -135 -111 -174 -122 l-24 -7 26 34 c42 54 57 102 57 176 0
71 -24 160 -62 237 -11 22 -61 102 -110 177 -151 233 -184 330 -175 513 5 104
37 229 60 238 18 8 49 -3 73 -25z m325 -110 c15 -25 37 -73 49 -107 21 -58 24
-61 54 -58 27 2 31 -2 34 -24 4 -32 -31 -135 -55 -161 -11 -13 -27 -18 -47
-16 -25 2 -35 11 -53 48 -58 118 -73 385 -20 367 6 -2 24 -24 38 -49z m759 26
c24 -62 0 -242 -45 -341 -21 -46 -28 -53 -53 -53 -47 0 -89 64 -99 150 -5 40
-3 51 11 56 9 3 23 1 31 -6 12 -10 16 -9 21 6 42 120 93 214 115 214 5 0 14
-12 19 -26z m-560 -330 c15 -39 12 -52 -14 -69 -54 -35 -96 43 -44 79 32 22
47 20 58 -10z m358 6 c26 -24 28 -52 6 -74 -19 -20 -24 -20 -52 0 -24 16 -28
44 -12 75 14 24 31 24 58 -1z m-274 -13 c8 -12 8 -22 0 -34 -16 -26 -41 -27
-54 -3 -9 18 -8 25 6 41 20 22 33 21 48 -4z m176 9 c18 -23 8 -61 -17 -64 -24
-4 -38 25 -28 58 7 23 28 26 45 6z m-122 -23 c-3 -30 -25 -42 -34 -19 -9 22 2
46 21 46 12 0 15 -8 13 -27z m62 -14 c0 -12 -7 -19 -19 -19 -27 0 -34 15 -21
40 9 17 14 19 26 9 8 -6 14 -20 14 -30z"/>
<path d="M4810 5422 c-157 -73 -270 -132 -270 -142 0 -4 7 -13 15 -20 12 -10
24 -9 63 5 66 25 172 86 240 139 51 39 91 77 81 76 -2 -1 -60 -27 -129 -58z"/>
<path d="M4483 5283 c-29 -14 -44 -33 -28 -33 14 0 65 32 65 40 0 12 3 12 -37
-7z"/>
<path d="M4531 5231 c-14 -4 -27 -13 -29 -20 -4 -13 24 -9 57 9 20 10 0 18
-28 11z"/>
<path d="M4520 5100 c-11 -7 -8 -10 15 -9 17 0 39 4 50 9 16 7 14 9 -15 9 -19
0 -42 -4 -50 -9z"/>
<path d="M4605 5063 c8 -33 3 -29 40 -37 l30 -6 -25 15 c-33 19 -34 19 120
-10 74 -13 136 -23 137 -21 2 2 -29 17 -69 34 -77 32 -159 52 -210 52 -28 0
-30 -2 -23 -27z"/>
<path d="M4620 4975 l0 -45 63 1 c34 1 73 4 86 8 22 6 19 9 -35 33 -120 54
-114 54 -114 3z"/>
<path d="M4795 4974 c54 -33 75 -37 141 -29 77 9 58 25 -53 41 -126 19 -136
18 -88 -12z"/>
<path d="M4683 4903 c-46 -2 -83 -8 -83 -13 0 -5 -13 -24 -29 -43 l-30 -33 72
-18 c40 -10 106 -32 147 -47 85 -33 216 -45 335 -32 l70 8 -72 47 c-168 110
-227 138 -279 136 -27 -1 -86 -4 -131 -5z"/>
<path d="M4598 4763 c7 -3 16 -2 19 1 4 3 -2 6 -13 5 -11 0 -14 -3 -6 -6z"/>
<path d="M4460 4605 c0 -4 21 -30 46 -59 26 -28 63 -75 82 -103 19 -29 36 -53
38 -53 8 0 -52 102 -86 147 -33 44 -80 84 -80 68z"/>
<path d="M1795 5454 c78 -67 140 -108 230 -154 108 -55 125 -59 142 -31 10 17
-4 26 -175 108 -217 105 -240 114 -197 77z"/>
<path d="M2196 5293 c-8 -8 44 -43 64 -43 11 1 10 4 -5 16 -32 25 -52 34 -59
27z"/>
<path d="M2150 5232 c0 -6 14 -15 30 -21 24 -8 30 -7 30 5 0 7 -6 14 -14 14
-8 0 -21 3 -30 6 -9 3 -16 2 -16 -4z"/>
<path d="M2135 5100 c28 -12 67 -12 60 0 -3 6 -23 10 -43 9 -30 0 -33 -2 -17
-9z"/>
<path d="M1960 5066 c-78 -23 -178 -70 -130 -61 118 22 247 45 255 45 6 -1 -3
-7 -20 -15 l-30 -14 30 6 c33 7 45 19 45 46 0 24 -55 22 -150 -7z"/>
<path d="M2010 4985 c-46 -19 -87 -35 -90 -36 -23 -4 58 -17 113 -18 l67 -1 0
45 c0 25 -1 45 -2 45 -2 0 -41 -16 -88 -35z"/>
<path d="M1840 4989 c-36 -5 -78 -15 -95 -21 l-30 -13 40 -7 c74 -13 105 -9
158 22 48 28 50 30 22 29 -16 -1 -59 -5 -95 -10z"/>
<path d="M1644 4898 c-17 -13 -63 -52 -102 -88 -51 -46 -68 -66 -59 -72 26
-14 243 -30 322 -24 54 5 110 18 172 42 51 19 115 40 143 46 l49 11 -30 42
-30 42 -129 7 -130 7 -127 -77 c-71 -42 -138 -84 -150 -92 -13 -8 -23 -12 -23
-8 0 3 55 42 123 87 67 45 126 86 132 90 5 5 -21 9 -61 9 -57 0 -76 -4 -100
-22z"/>
<path d="M2202 4645 c-18 -19 -39 -50 -48 -68 -16 -30 -13 -29 37 18 45 42 59
68 44 83 -1 1 -16 -13 -33 -33z"/>
<path d="M2194 4556 c-27 -29 -64 -81 -82 -115 -34 -64 -38 -84 -5 -28 11 17
48 67 83 110 72 90 75 113 4 33z"/>
</g>
</svg>
